Simulation
nRows=40
nColumns=15
endheader
time  TH_x TH_y TH_z SC_y  SC_z  SC_x  AC_y  AC_z  AC_x  GH_y  GH_z  GH_yy  EL_x  PS_y
2.681  0.000000  0.000000  0.000000  -17.887683978296725  3.7153901527233186  -14.35949617921769  50.73322916373831  12.113790972056231  8.499754816108718  -19.81151238736805  14.283283341206491  47.90332321101268  15.882736537450159  120.000000
2.73462  0.000000  0.000000  0.000000  -18.419404116413528  3.967000954930776  -13.90406962988786  50.76567580529718  12.883247061543251  8.4598999131765  -19.011307913390926  11.018905692173167  51.39524720409941  16.95248978549722  120.000000
2.78824  0.000000  0.000000  0.000000  -19.201384464964487  4.236423748011431  -13.196434010477807  50.9176306895068  13.625074432715756  8.350122570590969  -17.265906204351626  8.20626037138759  52.98795660857304  17.82174460252843  120.000000
2.84186  0.000000  0.000000  0.000000  -20.120517829899015  4.489939755862847  -12.313630886490811  51.146374425411736  14.299728210080215  8.170451057609739  -14.028736701950272  5.893454329094038  52.166793472667365  18.445274333503832  120.000000
2.89548  0.000000  0.000000  0.000000  -21.046881346782328  4.695699168738161  -11.334733924585228  51.42565143077483  14.871977883836527  7.9278863703985385  -8.7393068506512  4.1094526081828695  48.49903642386195  18.816682025570504  120.000000
2.9491  0.000000  0.000000  0.000000  -21.865608929006733  4.830770851537036  -10.331674618005707  51.74524582808677  15.319515087731126  7.636498288773074  -1.1424372171431845  2.846689336827223  41.88877623968961  18.957841954382843  120.000000
3.00272  0.000000  0.000000  0.000000  -22.504015880386127  4.888559320077181  -9.359716553955723  52.098856815338884  15.637115215987684  7.314357585348591  7.7445387044462  2.0495251390284266  33.50515951218118  18.91296564257107  120.000000
3.05634  0.000000  0.000000  0.000000  -22.93757767826412  4.876769733329341  -8.459386433597604  52.47694376811385  15.83325833193903  6.980461065437548  14.6956955089009  1.6141875351477728  26.708132195475315  18.742414371902306  120.000000
3.10996  0.000000  0.000000  0.000000  -23.176378499743773  4.809022541514223  -7.663701595430351  52.866598459269454  15.923806003834674  6.655718809948338  16.21197134208136  1.4280719122755954  25.11340916977569  18.51234541682669  120.000000
3.16358  0.000000  0.000000  0.000000  -23.25166603841221  4.697684566933907  -6.995145908866546  53.25299558444241  15.925509885982441  6.360880483274182  12.395861145251928  1.4231104984614855  28.714798423284076  18.278325363706667  120.000000
3.2172  0.000000  0.000000  0.000000  -23.204930950815854  4.5565204860535  -6.4577675456127945  53.62338197741155  15.85084716890292  6.109784230024222  6.901615549510723  1.5640219477496125  33.93224031874993  18.07318659980456  120.000000
3.27082  0.000000  0.000000  0.000000  -23.079946451565508  4.40270709307455  -6.04243434608522  53.96826689831371  15.712090410940839  5.90735101931805  2.9297172129354987  1.8113332686150554  37.617636909892695  17.90347271256228  120.000000
3.32444  0.000000  0.000000  0.000000  -22.917043739309374  4.2536078609391454  -5.736600460843929  54.281269388837266  15.524278940589891  5.751536099105848  1.358379601930998  2.1250645461862963  38.92638560110963  17.75807626366152  120.000000
3.37806  0.000000  0.000000  0.000000  -22.747012271095755  4.122254984514994  -5.529447638848528  54.55815183354273  15.301040481340376  5.639279556457787  1.8116531795921942  2.4787154381390253  38.25442325469005  17.622323372035623  120.000000
3.43168  0.000000  0.000000  0.000000  -22.588963537144327  4.014562101495709  -5.413324343633161  54.79490112699432  15.052944998125794  5.567107687460016  3.6406267515784014  2.8624205955850353  36.2594381380297  17.48784042650786  120.000000
3.4853  0.000000  0.000000  0.000000  -22.45162403681576  3.9311484406393076  -5.383214574172155  54.98625305490294  14.786887818569317  5.531469149103876  6.218406690139983  3.2786070906429603  33.56924474085731  17.354694156191577  120.000000
3.53892  0.000000  0.000000  0.000000  -22.333647398252026  3.8687803825869627  -5.435781216693779  55.12588175188156  14.505232026637332  5.529425882782179  8.995511446321416  3.7349885805386442  30.730624231688683  17.228712256892916  120.000000
3.59254  0.000000  0.000000  0.000000  -22.224404865694833  3.821867941082437  -5.569221411719996  55.2084973660244  14.20634895323778  5.559043724637258  11.517845675574065  4.239792381808978  28.193741033466654  17.114734267836496  120.000000
3.64616  0.000000  0.000000  0.000000  -22.10483950444647  3.782493349256101  -5.7828971192858445  55.23266243747362  13.886751126701196  5.6191961172612555  13.446683317992902  4.800877797613518  26.293705916331962  17.009869205980127  120.000000
3.69978  0.000000  0.000000  0.000000  -21.94994035292287  3.743051633791712  -6.077635523206917  55.20326191021639  13.5439023900643  5.709886662039006  14.586618560526075  5.429320810338464  25.221804570533482  16.90091641736266  120.000000
3.7534  0.000000  0.000000  0.000000  -21.736084987891036  3.697264248202046  -6.457247020383073  55.13116897565629  13.178810133712235  5.83196537470008  14.870843129046682  6.1454245710671165  25.034173526228543  16.76650599607936  120.000000
3.80702  0.000000  0.000000  0.000000  -21.449593014959394  3.637233308197836  -6.926417971434188  55.02940076680231  12.796494337309731  5.9856955319756855  14.323018653210891  6.982074304736223  25.68105505379069  16.579841183468396  120.000000
3.86064  0.000000  0.000000  0.000000  -21.095366879673126  3.5580200401982873  -7.485755804286765  54.910792331554184  12.406383833030521  6.173579948009191  13.077851576020164  7.987249778018448  26.979089336275845  16.31513115302659  120.000000
3.91426  0.000000  0.000000  0.000000  -20.69593584889369  3.455257730220058  -8.129440112952107  54.785162963723636  12.023826552567407  6.403631858763756  11.346707757293387  9.224313356675555  28.644076229937752  15.94976220546295  120.000000
3.96788  0.000000  0.000000  0.000000  -20.276979048614884  3.325444462857868  -8.85090972473248  54.66875637429619  11.66574425819826  6.686939405402217  9.342674127791236  10.763740051697303  30.37799047527352  15.469566297563253  120.000000
4.0215  0.000000  0.000000  0.000000  -19.852897202812606  3.1657195177717394  -9.652218681029234  54.59316819063896  11.345564707163916  7.040618589861749  7.18830699733883  12.673910271090342  31.967943818980824  14.877057951390286  120.000000
4.07512  0.000000  0.000000  0.000000  -19.423111508120837  2.9696051607716143  -10.540872223213155  54.60031093873839  11.076201573012305  7.4901902630641555  4.90288163021522  15.020657416109119  33.305704590385524  14.19775728886847  120.000000
4.1287400000000005  0.000000  0.000000  0.000000  -18.985918596497655  2.729665386687368  -11.52113835398307  54.7350052213735  10.877055144382645  8.061370691830238  2.4824557410602903  17.86712265649828  34.32800342548395  13.484371127571608  120.000000
4.18236  0.000000  0.000000  0.000000  -18.552781685219724  2.4416812168468747  -12.588319458299239  55.02839216381705  10.776313087350843  8.769095001048624  -0.043923289150327484  21.258761102052176  34.9844368096119  12.808395828338268  120.000000
4.23598  0.000000  0.000000  0.000000  -18.14829933953621  2.111931390844559  -13.727868537985904  55.49001629295138  10.811933125142287  9.605922546631902  -2.6023512605049413  25.19969208119711  35.23652133606336  12.24260952563283  120.000000
4.2896  0.000000  0.000000  0.000000  -17.806084038307173  1.756503192678719  -14.913742909762837  56.1082140060075  11.02964112253867  10.545393483171509  -5.077863814992874  29.631595149643154  35.04237969686955  11.836125440109532  120.000000
4.3432200000000005  0.000000  0.000000  0.000000  -17.562619408778602  1.3952030577329735  -16.109179617178906  56.857632742557904  11.4815211525206  11.545259332488758  -7.330260627217032  34.42517182021474  34.35495017941874  11.594020883423863  120.000000
4.39684  0.000000  0.000000  0.000000  -17.46041165325761  1.0540381597237134  -17.273639738572886  57.6990068767993  12.224628082429666  12.54830764378698  -9.23924373344018  39.392432201440144  33.14948388660034  11.473719043074013  120.000000
4.45046  0.000000  0.000000  0.000000  -17.552499718375742  0.7708378942148925  -18.35162954690537  58.576589756221374  13.298876907945134  13.479815497874927  -10.73901043930786  44.31904792468631  31.445509009919853  11.40365296228921  120.000000
4.50408  0.000000  0.000000  0.000000  -17.872141682047314  0.5884449098321531  -19.253459609875723  59.427262911271214  14.702926096998887  14.254221632616046  -11.81648389504039  48.99608027840547  29.304818596493522  11.315091517225088  120.000000
4.5577000000000005  0.000000  0.000000  0.000000  -18.395644077878895  0.5307406946022839  -19.85980026755925  60.18292150698644  16.390549360407658  14.806305470404284  -12.50312134890303  53.237663335164946  26.831220894400175  11.172153610759707  120.000000
4.61132  0.000000  0.000000  0.000000  -19.042582387332033  0.5993594593964361  -20.071360903334  60.78408597315127  18.282331896005978  15.100083778124187  -12.868427179316425  56.89832542020859  24.16518998267468  10.977689515809024  120.000000
4.66494  0.000000  0.000000  0.000000  -19.712872426398995  0.7864024695945696  -19.824242413134506  61.19377870555578  20.265317344168665  15.128304065951205  -12.994087974472087  59.896398033570776  21.461621384163276  10.761485332758106  120.000000
4.71856  0.000000  0.000000  0.000000  -20.329059760708283  1.0706599908076344  -19.06552818431452  61.39760699500914  22.19118558926446  14.924698775473857  -12.944071563444252  62.2272980477208  18.864906199175135  10.564126961066167  120.000000
4.7721800000000005  0.000000  0.000000  0.000000  -20.86083813718565  1.4310054228062294  -17.77220429891674  61.39740248347164  23.908348246154805  14.552027908061316  -12.758582070560989  63.95296296890433  16.488486778974444  10.421114333907878  120.000000
